<mxfile host="multicloud-diagrams" agent="PIP package multicloud-diagrams. Generate resources in draw.io compatible format for Cloud infrastructure. Copyrights @ Roman Tsypuk 2023. MIT license." type="MultiCloud">
	<diagram id="diagram_1" name="AWS components">
		<mxGraphModel dx="1015" dy="661" grid="1" gridSize="10" guides="1" tooltips="1" connect="1" arrows="1" fold="1" page="1" pageScale="1" pageWidth="850" pageHeight="1100" math="0" shadow="1">
			<root>
				<mxCell id="0"/>
				<mxCell id="1" parent="0"/>
				<mxCell id="vertex:github_code:arn:aws:code:eu-west-1:123456789012:repo/123" value="&lt;b&gt;Name&lt;/b&gt;: github_code&lt;BR&gt;&lt;b&gt;ID&lt;/b&gt;: arn:aws:code:eu-west-1:123456789012:repo/123&lt;BR&gt;-----------&lt;BR&gt;&lt;b&gt;name&lt;/b&gt;: my-code&lt;BR&gt;&lt;b&gt;codeDigest&lt;/b&gt;: sha256:5562sfsf60a6d1aaed5c2bb227d3d4ec14c755bdb446349b" style="verticalLabelPosition=bottom;html=1;verticalAlign=top;align=left;strokeColor=none;fillColor=#00BEF2;shape=mxgraph.azure.github_code;pointerEvents=1;" parent="1" vertex="1">
					<mxGeometry width="50" height="50" as="geometry"/>
				</mxCell>
			</root>
		</mxGraphModel>
	</diagram>
</mxfile>